<svg xmlns="http://www.w3.org/2000/svg" fill="none" viewBox="0 0 50 50"><path fill="url(#a)" d="M12.9282 5.48258C11.272 5.29747 9.56133 5.29747 7.90517 5.48258C6.65794 5.62197 5.64721 6.60364 5.49953 7.86632C5.30134 9.5608 5.30134 11.2726 5.49953 12.9671C5.64721 14.2298 6.65794 15.2114 7.90517 15.3508C9.56133 15.5359 11.272 15.5359 12.9282 15.3508C14.1754 15.2114 15.1861 14.2298 15.3338 12.9671C15.532 11.2726 15.532 9.5608 15.3338 7.86632C15.1861 6.60364 14.1754 5.62197 12.9282 5.48258Z"/><path fill="url(#b)" d="M27.5115 5.48258C25.8553 5.29747 24.1446 5.29747 22.4885 5.48258C21.2413 5.62197 20.2305 6.60364 20.0828 7.86632C19.8847 9.5608 19.8847 11.2726 20.0828 12.9671C20.2305 14.2298 21.2413 15.2114 22.4885 15.3508C24.1446 15.5359 25.8553 15.5359 27.5115 15.3508C28.7587 15.2114 29.7695 14.2298 29.9171 12.9671C30.1153 11.2726 30.1153 9.5608 29.9171 7.86632C29.7695 6.60364 28.7587 5.62197 27.5115 5.48258Z"/><path fill="url(#c)" d="M42.0948 5.48258C40.4387 5.29747 38.728 5.29747 37.0718 5.48258C35.8246 5.62197 34.8139 6.60364 34.6662 7.86632C34.468 9.5608 34.468 11.2726 34.6662 12.9671C34.8139 14.2298 35.8246 15.2114 37.0718 15.3508C38.728 15.5359 40.4387 15.5359 42.0948 15.3508C43.3421 15.2114 44.3528 14.2298 44.5005 12.9671C44.6986 11.2726 44.6986 9.5608 44.5005 7.86632C44.3528 6.60364 43.3421 5.62197 42.0948 5.48258Z"/><path fill="url(#d)" d="M12.9282 20.0659C11.272 19.8808 9.56133 19.8808 7.90517 20.0659C6.65794 20.2053 5.64721 21.187 5.49953 22.4497C5.30134 24.1441 5.30134 25.8559 5.49953 27.5504C5.64721 28.8131 6.65794 29.7948 7.90517 29.9341C9.56133 30.1193 11.272 30.1193 12.9282 29.9341C14.1754 29.7948 15.1861 28.8131 15.3338 27.5504C15.532 25.8559 15.532 24.1441 15.3338 22.4497C15.1861 21.187 14.1754 20.2053 12.9282 20.0659Z"/><path fill="url(#e)" d="M27.5115 20.0659C25.8553 19.8808 24.1446 19.8808 22.4885 20.0659C21.2413 20.2053 20.2305 21.187 20.0828 22.4497C19.8847 24.1441 19.8847 25.8559 20.0828 27.5504C20.2305 28.8131 21.2413 29.7948 22.4885 29.9341C24.1446 30.1193 25.8553 30.1193 27.5115 29.9341C28.7587 29.7948 29.7695 28.8131 29.9171 27.5504C30.1153 25.8559 30.1153 24.1441 29.9171 22.4497C29.7695 21.187 28.7587 20.2053 27.5115 20.0659Z"/><path fill="url(#f)" d="M42.0948 20.0659C40.4387 19.8808 38.728 19.8808 37.0718 20.0659C35.8246 20.2053 34.8139 21.187 34.6662 22.4497C34.468 24.1441 34.468 25.8559 34.6662 27.5504C34.8139 28.8131 35.8246 29.7948 37.0718 29.9341C38.728 30.1193 40.4387 30.1193 42.0948 29.9341C43.3421 29.7948 44.3528 28.8131 44.5005 27.5504C44.6986 25.8559 44.6986 24.1441 44.5005 22.4497C44.3528 21.187 43.3421 20.2053 42.0948 20.0659Z"/><path fill="url(#g)" d="M12.9282 34.6492C11.272 34.4641 9.56133 34.4641 7.90517 34.6492C6.65794 34.7886 5.64721 35.7703 5.49953 37.033C5.30134 38.7275 5.30134 40.4393 5.49953 42.1337C5.64721 43.3964 6.65794 44.3781 7.90517 44.5175C9.56133 44.7026 11.272 44.7026 12.9282 44.5175C14.1754 44.3781 15.1861 43.3964 15.3338 42.1337C15.532 40.4393 15.532 38.7275 15.3338 37.033C15.1861 35.7703 14.1754 34.7886 12.9282 34.6492Z"/><path fill="url(#h)" d="M27.5115 34.6492C25.8553 34.4641 24.1446 34.4641 22.4885 34.6492C21.2413 34.7886 20.2305 35.7703 20.0828 37.033C19.8847 38.7275 19.8847 40.4393 20.0828 42.1337C20.2305 43.3964 21.2413 44.3781 22.4885 44.5175C24.1446 44.7026 25.8553 44.7026 27.5115 44.5175C28.7587 44.3781 29.7695 43.3964 29.9171 42.1337C30.1153 40.4393 30.1153 38.7275 29.9171 37.033C29.7695 35.7703 28.7587 34.7886 27.5115 34.6492Z"/><path fill="url(#i)" d="M42.0948 34.6492C40.4387 34.4641 38.728 34.4641 37.0718 34.6492C35.8246 34.7886 34.8139 35.7703 34.6662 37.033C34.468 38.7275 34.468 40.4393 34.6662 42.1337C34.8139 43.3964 35.8246 44.3781 37.0718 44.5175C38.728 44.7026 40.4387 44.7026 42.0948 44.5175C43.3421 44.3781 44.3528 43.3964 44.5005 42.1337C44.6986 40.4393 44.6986 38.7275 44.5005 37.033C44.3528 35.7703 43.3421 34.7886 42.0948 34.6492Z"/><defs><linearGradient id="a" x1="25" x2="25" y1="5.344" y2="44.656" gradientUnits="userSpaceOnUse"><stop stop-color="#834D9B"/><stop offset="1" stop-color="#D04ED6"/></linearGradient><linearGradient id="b" x1="25" x2="25" y1="5.344" y2="44.656" gradientUnits="userSpaceOnUse"><stop stop-color="#834D9B"/><stop offset="1" stop-color="#D04ED6"/></linearGradient><linearGradient id="c" x1="25" x2="25" y1="5.344" y2="44.656" gradientUnits="userSpaceOnUse"><stop stop-color="#834D9B"/><stop offset="1" stop-color="#D04ED6"/></linearGradient><linearGradient id="d" x1="25" x2="25" y1="5.344" y2="44.656" gradientUnits="userSpaceOnUse"><stop stop-color="#834D9B"/><stop offset="1" stop-color="#D04ED6"/></linearGradient><linearGradient id="e" x1="25" x2="25" y1="5.344" y2="44.656" gradientUnits="userSpaceOnUse"><stop stop-color="#834D9B"/><stop offset="1" stop-color="#D04ED6"/></linearGradient><linearGradient id="f" x1="25" x2="25" y1="5.344" y2="44.656" gradientUnits="userSpaceOnUse"><stop stop-color="#834D9B"/><stop offset="1" stop-color="#D04ED6"/></linearGradient><linearGradient id="g" x1="25" x2="25" y1="5.344" y2="44.656" gradientUnits="userSpaceOnUse"><stop stop-color="#834D9B"/><stop offset="1" stop-color="#D04ED6"/></linearGradient><linearGradient id="h" x1="25" x2="25" y1="5.344" y2="44.656" gradientUnits="userSpaceOnUse"><stop stop-color="#834D9B"/><stop offset="1" stop-color="#D04ED6"/></linearGradient><linearGradient id="i" x1="25" x2="25" y1="5.344" y2="44.656" gradientUnits="userSpaceOnUse"><stop stop-color="#834D9B"/><stop offset="1" stop-color="#D04ED6"/></linearGradient></defs></svg>